<svg width="1440" height="1024" viewBox="0 0 1440 1024" fill="none" xmlns="http://www.w3.org/2000/svg">
<ellipse cx="120.752" cy="905.185" rx="120.752" ry="118.815" fill="#1EFADF" fill-opacity="0.23"/>
<ellipse cx="631.323" cy="706.566" rx="120.752" ry="118.815" fill="#1EFADF" fill-opacity="0.23"/>
<ellipse cx="1230.47" cy="531.059" rx="120.752" ry="118.815" fill="#1EFADF" fill-opacity="0.23"/>
<ellipse cx="380.362" cy="171.524" rx="120.752" ry="118.815" fill="#1EFADF" fill-opacity="0.23"/>
<ellipse cx="289.806" cy="325.746" rx="48.301" ry="47.5261" fill="#1EFADF" fill-opacity="0.23"/>
<ellipse cx="259.61" cy="682.933" rx="48.301" ry="47.5261" fill="#1EFADF" fill-opacity="0.23"/>
<path d="M1297.35 161.589C1297.35 187.837 1275.73 209.115 1249.05 209.115C1222.38 209.115 1200.75 187.837 1200.75 161.589C1200.75 135.341 1222.38 114.063 1249.05 114.063C1275.73 114.063 1297.35 135.341 1297.35 161.589Z" fill="#1EFADF" fill-opacity="0.23"/>
<ellipse cx="1007.96" cy="28.5156" rx="28.9806" ry="28.5156" fill="#1EFADF" fill-opacity="0.23"/>
<ellipse cx="1066.27" cy="156.733" rx="28.9806" ry="28.5156" fill="#1EFADF" fill-opacity="0.23"/>
<ellipse cx="816.49" cy="142.578" rx="28.9806" ry="28.5156" fill="#1EFADF" fill-opacity="0.23"/>
<ellipse cx="892.347" cy="52.7091" rx="28.9806" ry="28.5156" fill="#1EFADF" fill-opacity="0.23"/>
<ellipse cx="631.323" cy="120.298" rx="28.9806" ry="28.5156" fill="#1EFADF" fill-opacity="0.23"/>
<ellipse cx="496.08" cy="54.2206" rx="14.4903" ry="14.2578" fill="#1EFADF" fill-opacity="0.23"/>
<ellipse cx="152.794" cy="216.472" rx="14.4903" ry="14.2578" fill="#1EFADF" fill-opacity="0.23"/>
<ellipse cx="293.42" cy="455.017" rx="14.4903" ry="14.2578" fill="#1EFADF" fill-opacity="0.23"/>
<ellipse cx="365.872" cy="591.689" rx="14.4903" ry="14.2578" fill="#1EFADF" fill-opacity="0.23"/>
<ellipse cx="486.624" cy="573.493" rx="14.4903" ry="14.2578" fill="#1EFADF" fill-opacity="0.23"/>
<ellipse cx="737.585" cy="573.493" rx="14.4903" ry="14.2578" fill="#1EFADF" fill-opacity="0.23"/>
<ellipse cx="871.3" cy="692.308" rx="14.4903" ry="14.2578" fill="#1EFADF" fill-opacity="0.23"/>
<ellipse cx="993.467" cy="635.407" rx="14.4903" ry="14.2578" fill="#1EFADF" fill-opacity="0.23"/>
<ellipse cx="1087.32" cy="720.824" rx="14.4903" ry="14.2578" fill="#1EFADF" fill-opacity="0.23"/>
<ellipse cx="993.467" cy="811.123" rx="14.4903" ry="14.2578" fill="#1EFADF" fill-opacity="0.23"/>
<ellipse cx="830.98" cy="852.871" rx="14.4903" ry="14.2578" fill="#1EFADF" fill-opacity="0.23"/>
<ellipse cx="1000.69" cy="913.222" rx="14.4903" ry="14.2578" fill="#1EFADF" fill-opacity="0.23"/>
<ellipse cx="1215.24" cy="867.129" rx="14.4903" ry="14.2578" fill="#1EFADF" fill-opacity="0.23"/>
<ellipse cx="1343.81" cy="782.608" rx="14.4903" ry="14.2578" fill="#1EFADF" fill-opacity="0.23"/>
<ellipse cx="1396.53" cy="663.792" rx="14.4903" ry="14.2578" fill="#1EFADF" fill-opacity="0.23"/>
<ellipse cx="1425.51" cy="486.672" rx="14.4903" ry="14.2578" fill="#1EFADF" fill-opacity="0.23"/>
<ellipse cx="1336.73" cy="359.014" rx="14.4903" ry="14.2578" fill="#1EFADF" fill-opacity="0.23"/>
<ellipse cx="1365.71" cy="232.891" rx="14.4903" ry="14.2578" fill="#1EFADF" fill-opacity="0.23"/>
<ellipse cx="1382.04" cy="111.252" rx="14.4903" ry="14.2578" fill="#1EFADF" fill-opacity="0.23"/>
<ellipse cx="1250.12" cy="71.2892" rx="14.4903" ry="14.2578" fill="#1EFADF" fill-opacity="0.23"/>
<ellipse cx="1095.22" cy="77.5244" rx="14.4903" ry="14.2578" fill="#1EFADF" fill-opacity="0.23"/>
<ellipse cx="964.486" cy="147.331" rx="14.4903" ry="14.2578" fill="#1EFADF" fill-opacity="0.23"/>
<ellipse cx="766.566" cy="81.2249" rx="14.4903" ry="14.2578" fill="#1EFADF" fill-opacity="0.23"/>
<ellipse cx="595.566" cy="24.1935" rx="14.4903" ry="14.2578" fill="#1EFADF" fill-opacity="0.23"/>
<ellipse cx="551.729" cy="148.814" rx="14.4903" ry="14.2578" fill="#1EFADF" fill-opacity="0.23"/>
<ellipse cx="152.794" cy="71.2892" rx="14.4903" ry="14.2578" fill="#1EFADF" fill-opacity="0.23"/>
</svg>
